<svg id="Calque_1" data-name="Calque 1" xmlns="http://www.w3.org/2000/svg" viewBox="0 0 30 30"><defs><style>.cls-1{fill:#a2a6ad;}</style></defs><title>Icons</title><path class="cls-1" d="M7,5.15v9.43H2.65V22a3,3,0,0,0,3,3H21.86a3,3,0,0,0,3-3V5.15ZM5.65,23a1,1,0,0,1-1-1V16.58H6.94V22a1,1,0,0,1-1,1Zm17.19-1a1,1,0,0,1-1,1H9V7.15H22.84Z"/><path class="cls-1" d="M11.44,11.61h0l7.55,0a1,1,0,0,0,0-2h0l-7.55,0a1,1,0,0,0,0,2Z"/><path class="cls-1" d="M11.44,16.08h8.43a1,1,0,1,0,0-2H11.44a1,1,0,1,0,0,2Z"/><path class="cls-1" d="M11.44,20.54H16.9a1,1,0,1,0,0-2H11.44a1,1,0,0,0,0,2Z"/></svg>
