<svg xmlns="http://www.w3.org/2000/svg" viewBox="0 0 16 16"><path d="M18,9.49c.62-1.46.78-2,.15-2.66l-1.1-1.09L17,5.66a1,1,0,0,0-.65-.24h-.12c-.22,0-.42,0-1.71.58-.59-1.48-.89-2-1.77-2H11.23c-.9,0-1.2.56-1.74,2a4.67,4.67,0,0,0-1.72-.55H7.64a1,1,0,0,0-.71.29L5.8,6.88c-.64.65-.46,1.25.18,2.65-1.47.59-2,.89-2,1.77v1.47c0,.9.56,1.2,2,1.74-.62,1.45-.77,2-.15,2.65l1.09,1.08.1.09a1,1,0,0,0,.66.25h.12c.21,0,.42,0,1.71-.58.58,1.44.89,2,1.77,2h1.47c.9,0,1.2-.56,1.74-2a4.67,4.67,0,0,0,1.72.55h.14a1,1,0,0,0,.71-.29l1.14-1.14c.62-.64.44-1.24-.2-2.63,1.43-.58,2-.9,2-1.78V11.23C20,10.33,19.44,10,18,9.49Zm-4,6.43-.58.24a1,1,0,0,0-.56.58c-.24.64-.39,1-.49,1.26H11.7c-.12-.26-.3-.68-.53-1.27a1,1,0,0,0-.55-.56L10,15.93a1,1,0,0,0-.8,0l-.41.19a3.91,3.91,0,0,1,6.34,0l-.41-.18A1,1,0,0,0,14,15.92Zm-2-3a1.3,1.3,0,1,1,1.3-1.3A1.3,1.3,0,0,1,12,12.9Zm6-.59q-.39.18-1.28.54a1,1,0,0,0-.55.55l-.24.58a1,1,0,0,0,0,.54,5.48,5.48,0,0,0-1.59-1.12,2.9,2.9,0,1,0-4.57,0,5.46,5.46,0,0,0-1.6,1.12,1,1,0,0,0,0-.54l-.24-.57a1,1,0,0,0-.58-.56c-.58-.21-1-.37-1.26-.49V11.7c.26-.12.69-.29,1.28-.53a1,1,0,0,0,.56-.55L8.07,10a1,1,0,0,0,0-.8c-.29-.63-.46-1-.55-1.24L8,7.55c.23.08.62.24,1.29.53a1,1,0,0,0,.78,0l.58-.24a1,1,0,0,0,.56-.58c.24-.65.39-1,.48-1.26h.65q.18.39.53,1.28a1,1,0,0,0,.55.56l.58.24a1,1,0,0,0,.8,0c.63-.29,1-.45,1.24-.54l.46.46c-.1.27-.28.7-.53,1.28a1,1,0,0,0,0,.78l.24.58a1,1,0,0,0,.58.56c.65.24,1,.39,1.26.48Z" transform="translate(-4 -4)"/></svg>
