<svg id="Calque_1" data-name="Calque 1" xmlns="http://www.w3.org/2000/svg" viewBox="0 0 30 30"><defs><style>.cls-1{fill:#a2a6ad;}</style></defs><title>Icons</title><path class="cls-1" d="M25.54,3.17H9.66a1,1,0,0,0-1,1v5h-5a1,1,0,0,0-1,1V26a1,1,0,0,0,1.51.86L8.95,24H19.58a1,1,0,0,0,1-1V18.23L25,20.9A1,1,0,0,0,26.54,20V4.17A1,1,0,0,0,25.54,3.17ZM18.58,22H8.67a1,1,0,0,0-.51.14L4.71,24.23V11.12h4v5.94a1,1,0,0,0,1,1h8.92Zm6-3.74-3.45-2.07a1,1,0,0,0-.51-.14H10.66V5.17H24.54Z"/><circle class="cls-1" cx="21.07" cy="10.61" r="0.99"/><circle class="cls-1" cx="17.6" cy="10.61" r="0.99"/><circle class="cls-1" cx="14.13" cy="10.61" r="0.99"/></svg>