<svg version="1.1" id="iris-logout" xmlns="http://www.w3.org/2000/svg" xmlns:xlink="http://www.w3.org/1999/xlink" x="0px" y="0px" viewBox="0 0 24 24" style="enable-background:new 0 0 24 24;" xml:space="preserve"><g><path d="M11.2,17H9c-0.7,0-1.2-0.6-1.2-1.3V8.3C7.8,7.6,8.3,7,9,7h2.2c0.6,0,1-0.4,1-1s-0.4-1-1-1H9C7.2,5,5.8,6.5,5.8,8.3v7.5C5.8,17.5,7.2,19,9,19h2.2c0.6,0,1-0.4,1-1S11.8,17,11.2,17z"/><path class="st0" d="M20,11.3l-3-3c-0.4-0.4-1-0.4-1.4,0s-0.4,1,0,1.4l1.3,1.3h-5.6c-0.6,0-1,0.4-1,1s0.4,1,1,1h5.6l-1.3,1.3c-0.4,0.4-0.4,1,0,1.4c0.2,0.2,0.5,0.3,0.7,0.3s0.5-0.1,0.7-0.3l3-3C20.3,12.3,20.3,11.7,20,11.3z"/></g></svg>

