<svg version="1.1" id="iris-profile" xmlns="http://www.w3.org/2000/svg" xmlns:xlink="http://www.w3.org/1999/xlink" x="0px" y="0px" viewBox="0 0 24 24" style="enable-background:new 0 0 24 24;" xml:space="preserve"><path d="M15,11.2c0.6-0.7,1-1.6,1-2.7c0-2.2-1.8-4.1-4.1-4.1S7.9,6.3,7.9,8.5c0,1,0.4,2,1,2.7c-2.9,1.2-4.9,4-4.9,7.3 c0,0.6,0.4,1,1,1h13.8c0.6,0,1-0.4,1-1C19.9,15.2,17.9,12.4,15,11.2z M9.9,8.5c0-1.1,0.9-2.1,2.1-2.1s2.1,0.9,2.1,2.1s-0.9,2.1-2.1,2.1S9.9,9.7,9.9,8.5z M6.2,17.5c0.5-2.8,2.9-4.9,5.8-4.9c2.9,0,5.4,2.1,5.8,4.9H6.2z"/></svg>
