<svg version="1.1" id="iris-search" xmlns="http://www.w3.org/2000/svg" xmlns:xlink="http://www.w3.org/1999/xlink" x="0px" y="0px" viewBox="0 0 100 100" style="enable-background:new 0 0 100 100;" xml:space="preserve"><path d="M84.7,81.2L66.8,63.3c9.3-11.8,8.5-28.9-2.3-39.8c-5.7-5.7-13.2-8.8-21.2-8.8c-8,0-15.5,3.1-21.2,8.8 c-5.7,5.7-8.8,13.2-8.8,21.2c0,8,3.1,15.5,8.8,21.2c5.8,5.8,13.5,8.8,21.2,8.8c6.6,0,13.2-2.2,18.6-6.4l17.9,17.9 c0.7,0.7,1.6,1,2.5,1s1.8-0.3,2.5-1C86,84.8,86,82.6,84.7,81.2z M27,61c-4.3-4.3-6.7-10.1-6.7-16.3s2.4-11.9,6.7-16.3 c4.3-4.3,10.1-6.7,16.3-6.7s11.9,2.4,16.3,6.7c4.3,4.3,6.7,10.1,6.7,16.3S63.9,56.7,59.5,61c-4.3,4.3-10.1,6.7-16.3,6.7 S31.3,65.4,27,61z"/></svg>