<svg id="Calque_1" data-name="Calque 1" xmlns="http://www.w3.org/2000/svg" viewBox="0 0 16.06 16.15"><defs><style>.cls-1{fill:#384257;}</style></defs><title>Icon_admin_2</title><path class="cls-1" d="M10.16,20.07H9.1c-.63,0-.84-.42-1.27-1.41-.91.42-1.05.42-1.2.42H6.57A1.3,1.3,0,0,1,6.08,19L6,18.88l-.77-.77c-.42-.49-.28-.84.14-1.9C4.39,15.86,4,15.65,4,15V14c0-.63.35-.84,1.41-1.27-.42-1-.56-1.41-.14-1.9L6,10a.64.64,0,0,1,.49-.21h.07a3,3,0,0,1,1.2.35c.35-1,.56-1.41,1.2-1.41H10c.63,0,.84.35,1.27,1.41.91-.42,1.05-.42,1.2-.42h.07a1.3,1.3,0,0,1,.49.14l.07.07.77.77c.49.56.35.91-.07,2,1,.35,1.41.56,1.41,1.2v1.05c0,.63-.42.84-1.41,1.27.42,1,.56,1.41.14,1.83l-.77.77a.64.64,0,0,1-.49.21h-.07a3,3,0,0,1-1.2-.35C11,19.65,10.79,20.07,10.16,20.07Zm-.77-1.41h.42c.07-.14.14-.42.35-.91a.63.63,0,0,1,.42-.42l.42-.14a.77.77,0,0,1,.56,0c.49.21.77.28.91.35l.35-.35c-.07-.21-.21-.49-.35-.84a.78.78,0,0,1,0-.56l.14-.42c.07-.21.21-.28.42-.35.42-.14.7-.28.91-.35v-.49c-.14-.07-.42-.14-.91-.35a.63.63,0,0,1-.42-.42L12.34,13a.78.78,0,0,1,0-.56,5.56,5.56,0,0,0,.35-.91l-.28-.28a6.09,6.09,0,0,1-.84.35.78.78,0,0,1-.56,0l-.42-.14c-.21-.07-.28-.21-.35-.42-.14-.42-.28-.7-.35-.91H9.45c-.07.14-.14.42-.35.91a.63.63,0,0,1-.42.42l-.49.21a.77.77,0,0,1-.56,0l-.84-.42-.35.35a6.09,6.09,0,0,1,.35.84.78.78,0,0,1,0,.56l-.14.42c-.07.21-.21.28-.42.35-.42.14-.7.28-.91.35v.49c.21.07.49.21.91.35a.63.63,0,0,1,.42.42l.21.42a.77.77,0,0,1,0,.56,5.56,5.56,0,0,0-.35.91l.28.28a6.09,6.09,0,0,1,.84-.35.78.78,0,0,1,.56,0l.42.14a.72.72,0,0,1,.35.42A4.62,4.62,0,0,1,9.38,18.67ZM14,14.31ZM9.59,16.56a2.12,2.12,0,0,1-2.11-2.11,2.07,2.07,0,0,1,2.11-2.11h0a2.07,2.07,0,0,1,2.11,2.11,2.16,2.16,0,0,1-2.11,2.11Zm0-.7Zm0-.7a.76.76,0,0,0,.7-.7.66.66,0,0,0-.7-.7h0a.7.7,0,0,0-.7.7.66.66,0,0,0,.7.7Z" transform="translate(-3.97 -3.93)"/><path class="cls-1" d="M17.06,10.58h-.62c-.37,0-.5-.25-.74-.83-.54.25-.62.25-.7.25h0a.77.77,0,0,1-.29-.08l0,0-.45-.45c-.25-.29-.17-.5.08-1.12-.58-.21-.83-.33-.83-.7V7c0-.37.21-.5.83-.74-.25-.58-.33-.83-.08-1.12l.45-.45a.37.37,0,0,1,.29-.12h0a1.74,1.74,0,0,1,.7.21c.21-.58.33-.83.7-.83H17c.37,0,.5.21.74.83.54-.25.62-.25.7-.25h0a.77.77,0,0,1,.29.08l0,0,.45.45c.29.33.21.54,0,1.16.58.21.83.33.83.7v.62c0,.37-.25.5-.83.74.25.58.33.83.08,1.07l-.45.45a.37.37,0,0,1-.29.12h0a1.74,1.74,0,0,1-.7-.21C17.55,10.33,17.43,10.58,17.06,10.58Zm-.45-.83h.25c0-.08.08-.25.21-.54A.37.37,0,0,1,17.3,9l.25-.08a.45.45,0,0,1,.33,0c.29.12.45.17.54.21l.21-.21c0-.12-.12-.29-.21-.5a.46.46,0,0,1,0-.33l.08-.25c0-.12.12-.17.25-.21s.41-.17.54-.21V7.11c-.08,0-.25-.08-.54-.21a.37.37,0,0,1-.25-.25l-.17-.21a.46.46,0,0,1,0-.33,3.27,3.27,0,0,0,.21-.54l-.17-.17a3.58,3.58,0,0,1-.5.21.46.46,0,0,1-.33,0l-.25-.08c-.12,0-.17-.12-.21-.25s-.17-.41-.21-.54h-.25c0,.08-.08.25-.21.54a.37.37,0,0,1-.25.25l-.29.12a.45.45,0,0,1-.33,0l-.5-.25-.21.21a3.58,3.58,0,0,1,.21.5.46.46,0,0,1,0,.33L15,6.69c0,.12-.12.17-.25.21s-.41.17-.54.21v.29c.12,0,.29.12.54.21a.37.37,0,0,1,.25.25l.12.25a.45.45,0,0,1,0,.33,3.27,3.27,0,0,0-.21.54l.17.17a3.58,3.58,0,0,1,.5-.21.46.46,0,0,1,.33,0l.25.08a.42.42,0,0,1,.21.25A2.72,2.72,0,0,1,16.6,9.75Zm2.73-2.56Zm-2.6,1.32a1.24,1.24,0,0,1-1.24-1.24A1.22,1.22,0,0,1,16.73,6h0A1.22,1.22,0,0,1,18,7.27a1.27,1.27,0,0,1-1.24,1.24Zm0-.41Zm0-.41a.44.44,0,0,0,.41-.41.39.39,0,0,0-.41-.41h0a.41.41,0,0,0-.41.41.39.39,0,0,0,.41.41Z" transform="translate(-3.97 -3.93)"/></svg>