<svg id="Calque_1" data-name="Calque 1" xmlns="http://www.w3.org/2000/svg" viewBox="0 0 30 30"><defs><style>.cls-1{fill:#a2a6ad;}</style></defs><title>Icons</title><path class="cls-1" d="M19.59,15.57H17.11a1,1,0,0,0,0,2h2.48a1,1,0,0,0,0-2Z"/><path class="cls-1" d="M19.59,19.54H17.11a1,1,0,0,0,0,2h2.48a1,1,0,1,0,0-2Z"/><path class="cls-1" d="M12.69,15.58H10.16a1,1,0,0,0,0,2h2.53a1,1,0,0,0,0-2Z"/><path class="cls-1" d="M12.64,19.54H10.16a1,1,0,1,0,0,2h2.48a1,1,0,1,0,0-2Z"/><path class="cls-1" d="M21.05,7.13h-1v-2a1,1,0,0,0-2,0v2h-6v-2a1,1,0,0,0-2,0v2h-1a4,4,0,0,0-4,4V22.5a4,4,0,0,0,4,4h12a4,4,0,0,0,4-4V11.13A4,4,0,0,0,21.05,7.13Zm-12,2h12a2,2,0,0,1,2,2h-16A2,2,0,0,1,9.07,9.13Zm12,15.36h-12a2,2,0,0,1-2-2V13.1h16V22.5A2,2,0,0,1,21.05,24.5Z"/></svg>