<?xml version="1.0" encoding="utf-8"?>
<!-- Generator: Adobe Illustrator 21.0.2, SVG Export Plug-In . SVG Version: 6.00 Build 0)  -->
<!DOCTYPE svg PUBLIC "-//W3C//DTD SVG 1.1//EN" "http://www.w3.org/Graphics/SVG/1.1/DTD/svg11.dtd">
<svg version="1.1" id="Calque_1" xmlns="http://www.w3.org/2000/svg" xmlns:xlink="http://www.w3.org/1999/xlink" x="0px" y="0px"
	 viewBox="0 0 24 24" style="enable-background:new 0 0 24 24;" xml:space="preserve">
<style type="text/css">
	.st0{fill:#384257;}
</style>
<g>
	<g>
		<g>
			<g>
				<g>
					<g>
						<g>
							<g>
								<g>
									<g>
										<g>
											<g>
												<g>
													<g>
														<path class="st0" d="M12.8,20h-1.5c-0.9,0-1.2-0.6-1.8-2c-1.3,0.6-1.5,0.6-1.7,0.6H7.7c-0.2,0-0.5-0.1-0.7-0.2
															l-0.1-0.1l-1.1-1.1C5.2,16.5,5.4,16,6,14.5c-1.4-0.5-2-0.8-2-1.7v-1.5c0-0.9,0.5-1.2,2-1.8c-0.6-1.4-0.8-2-0.2-2.7
															l1.1-1.1c0.2-0.2,0.4-0.3,0.7-0.3h0.1c0.2,0,0.5,0,1.7,0.5c0.5-1.4,0.8-2,1.7-2h1.5c0.9,0,1.2,0.5,1.8,2
															c1.3-0.6,1.5-0.6,1.7-0.6h0.1c0.2,0,0.5,0.1,0.7,0.2l0.1,0.1l1.1,1.1C18.8,7.5,18.6,8,18,9.5c1.4,0.5,2,0.8,2,1.7v1.5
															c0,0.9-0.6,1.2-2,1.8c0.6,1.4,0.8,2,0.2,2.6l-1.1,1.1c-0.2,0.2-0.4,0.3-0.7,0.3h-0.1c-0.2,0-0.5,0-1.7-0.5
															C14,19.4,13.7,20,12.8,20z M11.7,18h0.6c0.1-0.2,0.2-0.6,0.5-1.3c0.1-0.3,0.3-0.5,0.6-0.6l0.6-0.2
															c0.2-0.1,0.5-0.1,0.8,0c0.7,0.3,1.1,0.4,1.3,0.5l0.5-0.5c-0.1-0.3-0.3-0.7-0.5-1.2c-0.1-0.3-0.1-0.5,0-0.8l0.2-0.6
															c0.1-0.3,0.3-0.4,0.6-0.5c0.6-0.2,1-0.4,1.3-0.5v-0.7c-0.2-0.1-0.6-0.2-1.3-0.5c-0.3-0.1-0.5-0.3-0.6-0.6L15.9,10
															c-0.1-0.3-0.1-0.5,0-0.8c0.3-0.6,0.4-1,0.5-1.3L16,7.5c-0.2,0.1-0.6,0.3-1.2,0.5c-0.3,0.1-0.5,0.1-0.8,0l-0.6-0.2
															c-0.3-0.1-0.4-0.3-0.5-0.6c-0.2-0.6-0.4-1-0.5-1.3h-0.6c-0.1,0.2-0.2,0.6-0.5,1.3c-0.1,0.3-0.3,0.5-0.6,0.6L10,8.1
															c-0.2,0.1-0.5,0.1-0.8,0C8.6,7.8,8.2,7.6,8,7.5L7.5,8c0.1,0.2,0.3,0.6,0.5,1.2c0.1,0.3,0.1,0.5,0,0.8l-0.2,0.6
															c-0.1,0.3-0.3,0.4-0.6,0.5c-0.6,0.2-1,0.4-1.3,0.5v0.7c0.3,0.1,0.7,0.3,1.3,0.5c0.3,0.1,0.5,0.3,0.6,0.6L8.1,14
															c0.1,0.2,0.1,0.5,0,0.8c-0.3,0.6-0.4,1-0.5,1.3L8,16.5c0.2-0.1,0.6-0.3,1.2-0.5c0.3-0.1,0.5-0.1,0.8,0l0.6,0.2
															c0.2,0.1,0.4,0.3,0.5,0.6C11.4,17.3,11.6,17.7,11.7,18z M18.3,11.8L18.3,11.8L18.3,11.8z M12,15c-1.6,0-3-1.3-3-3
															c0-1.7,1.3-3,3-3c0,0,0,0,0,0c1.7,0,3,1.3,3,3C15,13.6,13.6,15,12,15C12,15,12,15,12,15z M12,14L12,14L12,14z M12,13
															c0.5,0,1-0.5,1-1c0-0.6-0.4-1-1-1c0,0,0,0,0,0c-0.6,0-1,0.5-1,1C11,12.6,11.4,13,12,13C12,13,12,13,12,13z"/>
													</g>
												</g>
											</g>
										</g>
									</g>
								</g>
							</g>
						</g>
					</g>
				</g>
			</g>
		</g>
	</g>
</g>
</svg>
