<svg id="Calque_1" data-name="Calque 1" xmlns="http://www.w3.org/2000/svg" viewBox="0 0 30 30"><defs><style>.cls-1{fill:#a2a6ad;}</style></defs><title>Icons</title><path class="cls-1" d="M25.66,15A10.66,10.66,0,1,0,7.38,22.45l0,.06a10.65,10.65,0,0,0,15.12,0l.05,0A10.61,10.61,0,0,0,25.66,15ZM15,6.36a8.64,8.64,0,0,1,6.95,13.77,8.94,8.94,0,0,0-3.62-2.62,4.57,4.57,0,1,0-6.6,0,8.94,8.94,0,0,0-3.65,2.65A8.64,8.64,0,0,1,15,6.36Zm2.58,8A2.55,2.55,0,1,1,15,11.81,2.55,2.55,0,0,1,17.58,14.35ZM9.49,21.66a7,7,0,0,1,11,0,8.62,8.62,0,0,1-11,0Z"/></svg>