<svg id="iris-settings" xmlns="http://www.w3.org/2000/svg" viewBox="0 0 20.33 20.33"><path d="M12,8.25A3.75,3.75,0,1,0,15.75,12,3.75,3.75,0,0,0,12,8.25Zm0,5.5A1.75,1.75,0,1,1,13.75,12,1.75,1.75,0,0,1,12,13.75Z" transform="translate(-1.83 -1.83)"/><path class="cls-1" d="M21.17,11h-.9a8.29,8.29,0,0,0-1.72-4.14l.64-.64a1,1,0,0,0-1.41-1.41l-.64.64A8.28,8.28,0,0,0,13,3.73v-.9a1,1,0,1,0-2,0v.9A8.29,8.29,0,0,0,6.86,5.45l-.64-.64A1,1,0,0,0,4.81,6.22l.64.64A8.29,8.29,0,0,0,3.73,11h-.9a1,1,0,1,0,0,2h.9a8.28,8.28,0,0,0,1.72,4.14l-.64.64a1,1,0,1,0,1.41,1.41l.64-.64A8.29,8.29,0,0,0,11,20.27v.9a1,1,0,1,0,2,0v-.9a8.28,8.28,0,0,0,4.14-1.72l.64.64a1,1,0,0,0,1.41-1.41l-.64-.64A8.28,8.28,0,0,0,20.27,13h.9a1,1,0,1,0,0-2ZM12,18.33A6.33,6.33,0,1,1,18.33,12,6.34,6.34,0,0,1,12,18.33Z" transform="translate(-1.83 -1.83)"/></svg>
